<?xml version="1.0" standalone="no"?>
<svg xmlns="http://www.w3.org/2000/svg" viewBox="0 0 175.272 29" width="175.272" height="29"><g fill="#E18611" color="#E18611" transform="translate(0, 0) scale(0.453125)"><svg width="64.0" height="64.0" x="0.0" y="0.0" viewBox="0 0 64 64"><g><path d="M58,0H6C2.7,0,0,2.7,0,6v52c0,3.3,2.7,6,6,6h52c3.299,0,6-2.7,6-6V6C64,2.7,61.299,0,58,0z M50.805,7.285h5.986v4.912   h-5.986V7.285z M7.209,7.285h23.947v4.912H7.209V7.285z M57.328,56.111H6.671V18.645h50.657V56.111z"></path><polygon points="23.662,41.776 14.259,36.063 23.662,30.554 23.662,24.695 10.18,33.638 10.18,38.611 23.662,47.593  "></polygon><polygon points="53.82,33.638 40.338,24.695 40.338,30.554 49.74,36.063 40.338,41.776 40.338,47.593 53.82,38.611  "></polygon><polygon points="37.379,21.938 33.424,21.938 26.621,50.351 30.501,50.351  "></polygon></g></svg></g><line x1="41" y1="1" x2="41" y2="28" stroke="#116CE1" stroke-linecap="round"></line><path fill="#116CE1" fill-rule="nonzero" d="M5.04 20.81Q3.62 20.81 2.47 20.26Q1.32 19.70 0.66 18.64Q0 17.57 0 16.06L0 16.06L0 10.90L4.06 10.90L4.06 15.82Q4.06 16.37 4.28 16.69Q4.51 17.02 4.99 17.02L4.99 17.02Q5.45 17.02 5.68 16.72Q5.90 16.42 5.90 15.86L5.90 15.86L5.90 0L10.06 0L10.06 15.46Q10.06 17.06 9.42 18.28Q8.78 19.49 7.64 20.15Q6.50 20.81 5.04 20.81L5.04 20.81ZM14.95 20.81Q12.98 20.81 12.25 19.63Q11.52 18.46 11.52 16.13L11.52 16.13L11.52 3.05L15.74 3.05L15.74 15.29Q15.74 15.46 15.74 16.19Q15.74 16.92 15.97 17.22Q16.20 17.52 16.68 17.52L16.68 17.52Q17.33 17.52 17.50 16.98Q17.66 16.44 17.66 15.43L17.66 15.43L17.66 15.29L17.69 3.05L21.86 3.05L21.86 20.62L17.66 20.62L17.66 18.74Q17.23 19.85 16.66 20.33Q16.08 20.81 14.95 20.81L14.95 20.81ZM26.74 20.81Q24.70 20.81 23.94 19.45Q23.18 18.10 23.18 15.58L23.18 15.58Q23.18 13.51 23.72 12.41Q24.26 11.30 25.22 10.79Q26.18 10.27 28.15 9.65L28.15 9.65L29.30 9.26L29.30 9.22L29.30 7.46Q29.30 6.77 29.03 6.40Q28.75 6.02 28.37 6.02L28.37 6.02Q28.03 6.02 27.78 6.34Q27.53 6.65 27.53 7.18L27.53 7.18L27.53 8.23L23.45 8.23L23.45 7.66Q23.45 5.06 24.66 3.96Q25.87 2.86 28.61 2.86L28.61 2.86Q30.79 2.86 32.16 4.00Q33.53 5.14 33.53 7.22L33.53 7.22L33.53 20.62L29.35 20.62L29.35 18.53Q29.04 19.61 28.36 20.21Q27.67 20.81 26.74 20.81L26.74 20.81ZM28.39 17.54Q28.87 17.54 29.08 17.15Q29.28 16.75 29.28 16.18L29.28 16.18L29.28 11.28Q28.34 11.64 27.90 12.19Q27.46 12.74 27.46 13.73L27.46 13.73L27.46 15.98Q27.46 17.54 28.39 17.54L28.39 17.54ZM35.14 20.62L35.14 3.05L39.34 3.05L39.34 5.28Q39.60 4.20 40.25 3.53Q40.90 2.86 41.98 2.86L41.98 2.86Q43.75 2.86 44.60 3.95Q45.46 5.04 45.46 7.06L45.46 7.06L45.46 20.62L41.33 20.62L41.33 7.49Q41.33 6.91 41.10 6.50Q40.87 6.10 40.39 6.10L40.39 6.10Q39.74 6.10 39.54 6.68Q39.34 7.27 39.34 8.26L39.34 8.26L39.34 20.62L35.14 20.62ZM61.32 20.62L52.80 20.62L52.80 0L61.06 0L61.06 3.98L57 3.98L57 7.99L60.89 7.99L60.89 11.88L57 11.88L57 16.61L61.32 16.61L61.32 20.62ZM67.44 20.81Q62.23 20.81 62.23 15.53L62.23 15.53L62.26 14.14L66.46 14.14L66.48 16.20Q66.48 16.82 66.72 17.15Q66.96 17.47 67.51 17.47L67.51 17.47Q68.35 17.47 68.35 16.10L68.35 16.10Q68.35 15.10 67.96 14.52Q67.56 13.94 66.70 13.30L66.70 13.30L64.46 11.57Q63.31 10.68 62.81 9.73Q62.30 8.78 62.30 7.06L62.30 7.06Q62.30 5.71 63.01 4.76Q63.72 3.82 64.90 3.34Q66.07 2.86 67.51 2.86L67.51 2.86Q72.62 2.86 72.62 7.94L72.62 7.94L72.62 8.28L68.28 8.28L68.28 7.61Q68.28 6.98 68.08 6.54Q67.87 6.10 67.39 6.10L67.39 6.10Q66.96 6.10 66.73 6.35Q66.50 6.60 66.50 7.03L66.50 7.03Q66.50 7.99 67.25 8.52L67.25 8.52L69.84 10.42Q71.23 11.45 71.98 12.66Q72.72 13.87 72.72 15.72L72.72 15.72Q72.72 18.17 71.33 19.49Q69.94 20.81 67.44 20.81L67.44 20.81ZM79.30 20.81Q76.42 20.81 75.14 19.34Q73.87 17.88 73.87 14.86L73.87 14.86L73.87 9.43Q73.87 7.15 74.36 5.72Q74.86 4.30 76.02 3.58Q77.18 2.86 79.25 2.86L79.25 2.86Q81.50 2.86 82.92 4.03Q84.34 5.21 84.34 7.32L84.34 7.32L84.34 10.01L80.06 10.01L80.06 7.54Q80.06 6.84 79.87 6.47Q79.68 6.10 79.13 6.10L79.13 6.10Q78.10 6.10 78.10 7.56L78.10 7.56L78.10 16.08Q78.10 16.68 78.35 17.10Q78.60 17.52 79.10 17.52L79.10 17.52Q79.61 17.52 79.86 17.11Q80.11 16.70 80.09 16.06L80.09 16.06L80.06 13.10L84.34 13.10L84.34 16.18Q84.34 18.34 82.93 19.57Q81.53 20.81 79.30 20.81L79.30 20.81ZM89.18 20.81Q87.22 20.81 86.48 19.63Q85.75 18.46 85.75 16.13L85.75 16.13L85.75 3.05L89.98 3.05L89.98 15.29Q89.98 15.46 89.98 16.19Q89.98 16.92 90.20 17.22Q90.43 17.52 90.91 17.52L90.91 17.52Q91.56 17.52 91.73 16.98Q91.90 16.44 91.90 15.43L91.90 15.43L91.90 15.29L91.92 3.05L96.10 3.05L96.10 20.62L91.90 20.62L91.90 18.74Q91.46 19.85 90.89 20.33Q90.31 20.81 89.18 20.81L89.18 20.81ZM97.78 20.62L97.78 3.05L101.98 3.05L101.98 4.99Q102.29 3.96 103.07 3.40Q103.85 2.83 105 2.83L105 2.83L105 6.34Q104.11 6.34 103.04 6.59Q101.98 6.84 101.98 7.18L101.98 7.18L101.98 20.62L97.78 20.62ZM106.03 20.62L106.03 3.05L110.23 3.05L110.23 4.99Q110.54 3.96 111.32 3.40Q112.10 2.83 113.26 2.83L113.26 2.83L113.26 6.34Q112.37 6.34 111.30 6.59Q110.23 6.84 110.23 7.18L110.23 7.18L110.23 20.62L106.03 20.62ZM117.48 20.81Q115.44 20.81 114.68 19.45Q113.93 18.10 113.93 15.58L113.93 15.58Q113.93 13.51 114.47 12.41Q115.01 11.30 115.97 10.79Q116.93 10.27 118.90 9.65L118.90 9.65L120.05 9.26L120.05 9.22L120.05 7.46Q120.05 6.77 119.77 6.40Q119.50 6.02 119.11 6.02L119.11 6.02Q118.78 6.02 118.52 6.34Q118.27 6.65 118.27 7.18L118.27 7.18L118.27 8.23L114.19 8.23L114.19 7.66Q114.19 5.06 115.40 3.96Q116.62 2.86 119.35 2.86L119.35 2.86Q121.54 2.86 122.90 4.00Q124.27 5.14 124.27 7.22L124.27 7.22L124.27 20.62L120.10 20.62L120.10 18.53Q119.78 19.61 119.10 20.21Q118.42 20.81 117.48 20.81L117.48 20.81ZM119.14 17.54Q119.62 17.54 119.82 17.15Q120.02 16.75 120.02 16.18L120.02 16.18L120.02 11.28Q119.09 11.64 118.64 12.19Q118.20 12.74 118.20 13.73L118.20 13.73L118.20 15.98Q118.20 17.54 119.14 17.54L119.14 17.54Z" transform="translate(51, 4.096)"></path></svg>